Coordinates
version=1
nRows=11
nColumns=40
inDegrees=yes

Units are S.I. units (second, meters, Newtons, ...)
If the header above contains a line with 'inDegrees', this indicates whether rotational values are in degrees (yes) or radians (no).

endheader
time	pelvis_tilt	pelvis_list	pelvis_rotation	pelvis_tx	pelvis_ty	pelvis_tz	hip_flexion_r	hip_adduction_r	hip_rotation_r	knee_angle_r	knee_angle_r_beta	ankle_angle_r	subtalar_angle_r	mtp_angle_r	hip_flexion_l	hip_adduction_l	hip_rotation_l	knee_angle_l	knee_angle_l_beta	ankle_angle_l	subtalar_angle_l	mtp_angle_l	lumbar_extension	lumbar_bending	lumbar_rotation	arm_flex_r	arm_add_r	arm_rot_r	elbow_flex_r	pro_sup_r	wrist_flex_r	wrist_dev_r	arm_flex_l	arm_add_l	arm_rot_l	elbow_flex_l	pro_sup_l	wrist_flex_l	wrist_dev_l
      0.94000000	     -0.12814650	     -7.36012898	     88.04635099	      0.21162949	      0.95067439	      0.71796553	     -2.46856268	      3.81899140	     -0.88934183	      8.39488726	      0.14651842	      9.60916899	     -0.00000000	      0.00000000	     28.49590494	     -1.21243875	     -3.20881326	      4.32382269	      0.07546494	     -1.31677708	     -0.00000000	      0.00000000	      1.97498357	     -1.41162300	      5.08904975	      0.00000000	     -0.00000000	     -0.00000000	      0.00000000	      0.00000000	     -0.00000000	     -0.00000000	      0.00000000	      0.00000000	      0.00000000	      0.00000000	      0.00000000	      0.00000000	      0.00000000
      0.95000000	     -0.31163486	     -7.39194957	     87.83627529	      0.21068640	      0.94902936	      0.70809175	     -2.98695601	      3.52177541	     -0.75343762	      8.60709730	      0.15022219	     10.37741140	      0.00000000	      0.00000000	     28.34335015	     -0.94893986	     -2.73030600	      3.69987188	      0.06457495	     -1.38371858	      0.00000000	      0.00000000	      2.12980362	     -1.53037449	      5.16960215	      0.00000000	      0.00000000	      0.00000000	      0.00000000	      0.00000000	      0.00000000	      0.00000000	      0.00000000	      0.00000000	      0.00000000	      0.00000000	      0.00000000	      0.00000000	      0.00000000
      0.96000000	     -0.54748115	     -7.41111292	     87.65880416	      0.20974598	      0.94747905	      0.69824020	     -3.40358935	      3.16731622	     -0.69068680	      9.03682698	      0.15772238	     10.91054274	      0.00000000	     -0.00000000	     28.33659176	     -0.64760322	     -2.53442296	      3.67560051	      0.06415133	     -1.65243138	      0.00000000	     -0.00000000	      2.25185963	     -1.77559488	      5.26090567	     -0.00000000	     -0.00000000	      0.00000000	      0.00000000	      0.00000000	      0.00000000	     -0.00000000	     -0.00000000	      0.00000000	     -0.00000000	      0.00000000	      0.00000000	      0.00000000	      0.00000000
      0.97000000	     -0.81173222	     -7.34006926	     87.46849605	      0.20871323	      0.94617739	      0.68832360	     -3.80792276	      2.75972209	     -0.67151057	      9.68810621	      0.16908935	     11.49005924	      0.00000000	      0.00000000	     28.26371369	     -0.32718304	     -2.54618474	      3.96700038	      0.06923722	     -2.17905768	      0.00000000	      0.00000000	      2.26495040	     -2.03159247	      5.34570803	      0.00000000	      0.00000000	      0.00000000	      0.00000000	      0.00000000	      0.00000000	      0.00000000	      0.00000000	      0.00000000	      0.00000000	      0.00000000	      0.00000000	      0.00000000	      0.00000000
      0.98000000	     -1.11830774	     -7.31809953	     87.30095552	      0.20754141	      0.94491594	      0.67825864	     -4.12974819	      2.29542082	     -0.68522879	     10.39333249	      0.18139787	     11.96616923	      0.00000000	      0.00000000	     28.34089815	      0.03771858	     -2.75094984	      4.68658960	      0.08179642	     -2.85720380	      0.00000000	      0.00000000	      2.36683662	     -2.32157856	      5.43887195	      0.00000000	      0.00000000	      0.00000000	      0.00000000	      0.00000000	      0.00000000	      0.00000000	      0.00000000	      0.00000000	      0.00000000	      0.00000000	      0.00000000	      0.00000000	      0.00000000
      0.99000000	     -1.42852874	     -7.27036227	     87.16760596	      0.20631058	      0.94381435	      0.66812525	     -4.39924555	      1.82284298	     -0.73172089	     11.26497987	      0.19661099	     12.40627299	      0.00000000	      0.00000000	     28.46403601	      0.39811564	     -3.16001720	      5.71378258	      0.09972432	     -3.71255286	      0.00000000	      0.00000000	      2.44453280	     -2.63534322	      5.44802645	      0.00000000	      0.00000000	      0.00000000	      0.00000000	      0.00000000	      0.00000000	      0.00000000	      0.00000000	      0.00000000	      0.00000000	      0.00000000	      0.00000000	      0.00000000	      0.00000000
      1.00000000	     -1.73518136	     -7.22582038	     87.05036618	      0.20502182	      0.94285803	      0.65788692	     -4.58860742	      1.34272670	     -0.78599225	     12.27607144	      0.21425787	     12.70490733	      0.00000000	      0.00000000	     28.61918738	      0.74661854	     -3.62531360	      6.94400506	      0.12119575	     -4.64709428	      0.00000000	      0.00000000	      2.53548919	     -2.94787251	      5.48101437	      0.00000000	      0.00000000	      0.00000000	      0.00000000	      0.00000000	      0.00000000	      0.00000000	      0.00000000	      0.00000000	      0.00000000	      0.00000000	      0.00000000	      0.00000000	      0.00000000
      1.01000000	     -2.03061868	     -7.15803544	     86.94276714	      0.20368233	      0.94210264	      0.64756173	     -4.71887051	      0.85565306	     -0.87193811	     13.43966333	      0.23456638	     12.87843854	      0.00000000	      0.00000000	     28.76701954	      1.07546743	     -4.11565468	      8.31479695	      0.14512058	     -5.62020284	      0.00000000	      0.00000000	      2.61940090	     -3.24204622	      5.48190068	      0.00000000	      0.00000000	      0.00000000	      0.00000000	      0.00000000	      0.00000000	      0.00000000	      0.00000000	      0.00000000	      0.00000000	      0.00000000	      0.00000000	      0.00000000	      0.00000000
      1.02000000	     -2.30563821	     -7.07197006	     86.87635525	      0.20223479	      0.94156527	      0.63716997	     -4.76859199	      0.38015524	     -0.96022042	     14.77567458	      0.25788417	     12.86720496	      0.00000000	      0.00000000	     28.88121170	      1.39523507	     -4.55366659	      9.74060050	      0.17000555	     -6.52762112	      0.00000000	      0.00000000	      2.67946325	     -3.51494046	      5.46909750	      0.00000000	      0.00000000	      0.00000000	      0.00000000	      0.00000000	      0.00000000	      0.00000000	      0.00000000	      0.00000000	      0.00000000	      0.00000000	      0.00000000	      0.00000000	      0.00000000
      1.03000000	     -2.55267457	     -6.98020919	     86.83082396	      0.20071341	      0.94124119	      0.62672527	     -4.71079253	     -0.08347524	     -1.03754091	     16.30249568	      0.28453223	     12.64942009	      0.00000000	      0.00000000	     28.95062316	      1.69701340	     -4.91273877	     11.14647024	      0.19454261	     -7.28786033	      0.00000000	      0.00000000	      2.73407512	     -3.76053051	      5.44516281	      0.00000000	      0.00000000	      0.00000000	      0.00000000	      0.00000000	      0.00000000	      0.00000000	      0.00000000	      0.00000000	      0.00000000	      0.00000000	      0.00000000	      0.00000000	      0.00000000
      1.04000000	     -2.73771467	     -6.82370322	     86.77788826	      0.19923112	      0.94131573	      0.61618252	     -4.68996687	     -0.44809883	     -0.75861138	     17.83630551	      0.31130226	     12.02215808	      0.00000000	      0.00000000	     28.83726488	      1.97728470	     -4.82278747	     12.41900615	      0.21675255	     -7.75432272	      0.00000000	      0.00000000	      2.73564182	     -3.93503198	      5.42070944	      0.00000000	      0.00000000	      0.00000000	      0.00000000	      0.00000000	      0.00000000	      0.00000000	      0.00000000	      0.00000000	      0.00000000	      0.00000000	      0.00000000	      0.00000000	      0.00000000
